# xmcd
#
# Track frame offsets:
#	150
#	16750
#	32611
#	56932
#	71412
#	86813
#	103812
#	120245
#	135438
#	154009
#	171759
#	193335
#	211337
#	238385
#	252316
#	273118
#	287341
#	303394
#	317848
#	333729
#
# Disc length: 4659 seconds
#
# Revision: 1
# Processed by: cddbd v1.5.2PL0 Copyright (c) Steve Scherf et al.
# Submitted via: audiograbber 1.83.01
#
DISCID=20123114
DTITLE=Various Artist - Europa Plus 2003 N4
DYEAR=1900
DGENRE=
TTITLE0=Girls aloud - Sound of the underground
TTITLE1=Ю. Бужилова и Р. Летвинова - Ты мне пишешь
TTITLE2=Circus - Hand off (original version)
TTITLE3=Глюкоза - Ля мур
TTITLE4=Backstreet boys - The call
TTITLE5=Руки вверх - Мне с тобою хорошо
TTITLE6=Attitude - We wanna dance
TTITLE7=Чай вдвоем - Желанная
TTITLE8=Sugababes - Shape
TTITLE9=Любэ и Фабрика Звезд - Конь
TTITLE10=Niki Pop - Ma che storia e
TTITLE11=И. Пирцхалава - Вова-чума
TTITLE12=Eminem - 8 Mile (soundtrack)
TTITLE13=Игорек - Какая...
TTITLE14=Eros Ramazzotti - Un attimo di pace
TTITLE15=Пьер Нарцисс - Шоколадный заяц
TTITLE16=Jessica Jay - My macho (dance mix)
TTITLE17=Витас - Сердцебиение
TTITLE18=Avril Lavigne - Mobile
TTITLE19=Antique - Moro mou
EXTD=
EXTT0=
EXTT1=
EXTT2=
EXTT3=
EXTT4=
EXTT5=
EXTT6=
EXTT7=
EXTT8=
EXTT9=
EXTT10=
EXTT11=
EXTT12=
EXTT13=
EXTT14=
EXTT15=
EXTT16=
EXTT17=
EXTT18=
EXTT19=
PLAYORDER=
